<svg viewBox="0 0 80 28" xmlns="http://www.w3.org/2000/svg">
  <rect width="80" height="28" fill="#b6c489"/>
  <g fill="#a8b87a">
    <rect x="0" y="0" width="18" height="5" rx="2"/>
    <rect x="20" y="0" width="18" height="5" rx="2"/>
    <rect x="40" y="0" width="18" height="5" rx="2"/>
    <rect x="60" y="0" width="18" height="5" rx="2"/>
    <rect x="-10" y="7" width="18" height="5" rx="2"/>
    <rect x="10" y="7" width="18" height="5" rx="2"/>
    <rect x="30" y="7" width="18" height="5" rx="2"/>
    <rect x="50" y="7" width="18" height="5" rx="2"/>
    <rect x="70" y="7" width="18" height="5" rx="2"/>
    <rect x="0" y="14" width="18" height="5" rx="2"/>
    <rect x="20" y="14" width="18" height="5" rx="2"/>
    <rect x="40" y="14" width="18" height="5" rx="2"/>
    <rect x="60" y="14" width="18" height="5" rx="2"/>
    <rect x="-10" y="21" width="18" height="5" rx="2"/>
    <rect x="10" y="21" width="18" height="5" rx="2"/>
    <rect x="30" y="21" width="18" height="5" rx="2"/>
    <rect x="50" y="21" width="18" height="5" rx="2"/>
    <rect x="70" y="21" width="18" height="5" rx="2"/>
  </g>
  <g fill="#c3d098" opacity="0.55">
    <rect x="2" y="1" width="14" height="1.6" rx="0.8"/>
    <rect x="42" y="1" width="14" height="1.6" rx="0.8"/>
    <rect x="12" y="8" width="14" height="1.6" rx="0.8"/>
    <rect x="52" y="8" width="14" height="1.6" rx="0.8"/>
    <rect x="22" y="15" width="14" height="1.6" rx="0.8"/>
    <rect x="62" y="15" width="14" height="1.6" rx="0.8"/>
    <rect x="32" y="22" width="14" height="1.6" rx="0.8"/>
    <rect x="2" y="22" width="14" height="1.6" rx="0.8"/>
  </g>
  <g fill="#9aab6e" opacity="0.5">
    <rect x="18" y="0" width="2" height="28"/>
    <rect x="58" y="0" width="2" height="28"/>
  </g>
</svg>
